<?xml version="1.0" standalone="no"?><!DOCTYPE svg PUBLIC "-//W3C//DTD SVG 1.1//EN" "http://www.w3.org/Graphics/SVG/1.1/DTD/svg11.dtd"><svg t="1598934869689" class="icon" viewBox="0 0 1024 1024" version="1.1" xmlns="http://www.w3.org/2000/svg" p-id="5982" xmlns:xlink="http://www.w3.org/1999/xlink" width="200" height="200"><defs><style type="text/css"></style></defs><path d="M0 0h1024v1024H0z" fill="#FFFFFF" p-id="5983"></path><path d="M324.88448 106.7008a81.92 81.92 0 0 1 59.392-40.1408l201.33888-28.68224a81.92 81.92 0 0 1 87.56224 50.55488l75.8272 188.70272a81.92 81.92 0 0 1-5.0688 71.50592L439.54176 875.8784a81.92 81.92 0 0 1-111.90272 29.98272L50.46272 745.84064A81.92 81.92 0 0 1 20.48 633.93792L324.88448 106.7008z" fill="#E36130" p-id="5984"></path><path d="M317.44 251.11552a81.92 81.92 0 0 1 34.22208-66.60096l209.92-150.35392a81.92 81.92 0 0 1 95.39584 0l209.92 150.35392A81.92 81.92 0 0 1 901.12 251.11552V931.84a81.92 81.92 0 0 1-81.92 81.92H399.36a81.92 81.92 0 0 1-81.92-81.92V251.11552z" fill="#FF7744" p-id="5985"></path><path d="M614.4 235.52m-71.68 0a71.68 71.68 0 1 0 143.36 0 71.68 71.68 0 1 0-143.36 0Z" fill="#E36130" p-id="5986"></path><path d="M705.7408 174.7968a189.32736 189.32736 0 0 1 166.44096-99.19488h5.3248c13.1584 0 25.94816 4.27008 36.46464 12.17536 33.536 25.1904 32.13312 76.04224-2.75456 99.328l-3.65568 2.4576a74.38336 74.38336 0 0 1 28.2624 58.368v1.30048l11.59168-7.74144c72.33536-48.30208 75.25376-153.7536 5.70368-206.00832A125.8496 125.8496 0 0 0 877.5168 10.24h-5.33504A254.55616 254.55616 0 0 0 648.3968 143.616l-40.28416 74.3424a32.70656 32.70656 0 0 0 13.1072 44.31872c15.83104 8.6016 35.6352 2.73408 44.2368-13.12768l40.28416-74.3424z" fill="#FFA17E" p-id="5987"></path><path d="M614.4 440.32l50.31936 125.30688 134.71744 9.13408-103.6288 86.56896 32.95232 130.94912L614.4 720.4864l-114.36032 71.79264 32.94208-130.94912-103.6288-86.56896 134.72768-9.13408z" fill="#FFA17E" p-id="5988"></path></svg>